<?xml version="1.0" encoding="UTF-8" standalone="no"?>
<!DOCTYPE svg PUBLIC "-//W3C//DTD SVG 1.1//EN" "http://www.w3.org/Graphics/SVG/1.1/DTD/svg11.dtd">
<svg width="100%" height="100%" viewBox="0 0 64 64" version="1.1" xmlns="http://www.w3.org/2000/svg" xmlns:xlink="http://www.w3.org/1999/xlink" xml:space="preserve" xmlns:serif="http://www.serif.com/" style="fill-rule:evenodd;clip-rule:evenodd;stroke-linejoin:round;stroke-miterlimit:2;">
    <g transform="matrix(0.695652,0,0,0.695652,-4.17391,-2.78261)">
        <path d="M50,4L50,32L36,32C28.29,32 22,25.71 22,18C22,10.29 28.29,4 36,4L50,4ZM50,36L50,64L36,64C28.29,64 22,57.71 22,50C22,42.29 28.29,36 36,36L50,36ZM50,68L50,82C50,89.71 43.71,96 36,96C28.29,96 22,89.71 22,82C22,74.29 28.29,68 36,68L50,68ZM82,18C82,25.71 75.71,32 68,32L54,32L54,4L68,4C75.71,4 82,10.29 82,18ZM68,36C60.32,36 54,42.32 54,50C54,57.68 60.32,64 68,64C75.68,64 82,57.68 82,50C82,42.32 75.68,36 68,36Z" style="fill:white;fill-rule:nonzero;"/>
    </g>
</svg>
