<?xml version="1.0" encoding="UTF-8" standalone="no"?>
<!DOCTYPE svg PUBLIC "-//W3C//DTD SVG 1.1//EN" "http://www.w3.org/Graphics/SVG/1.1/DTD/svg11.dtd">
<svg width="100%" height="100%" viewBox="0 0 64 64" version="1.1" xmlns="http://www.w3.org/2000/svg" xmlns:xlink="http://www.w3.org/1999/xlink" xml:space="preserve" xmlns:serif="http://www.serif.com/" style="fill-rule:evenodd;clip-rule:evenodd;stroke-linejoin:round;stroke-miterlimit:2;">
    <g transform="matrix(0.695652,0,0,0.695652,-2.78261,-2.78261)">
        <path d="M93.586,44.18L55.82,6.414C54.219,4.805 52.109,4 50,4C47.891,4 45.781,4.805 44.18,6.414L36.711,13.883L45.953,23.125C49.023,21.32 53.023,21.711 55.656,24.344C58.289,26.977 58.672,30.977 56.867,34.039L65.953,43.125C69.023,41.32 73.023,41.711 75.656,44.344C78.781,47.469 78.781,52.531 75.656,55.656C72.531,58.781 67.469,58.781 64.344,55.656C61.711,53.023 61.32,49.023 63.125,45.953L54.039,36.867C53.391,37.25 52.711,37.531 52,37.711L52,62.281C55.445,63.172 58,66.273 58,70C58,74.422 54.422,78 50,78C45.578,78 42,74.422 42,70C42,66.273 44.555,63.172 48,62.281L48,37.711C46.664,37.367 45.391,36.703 44.344,35.656C41.711,33.023 41.328,29.023 43.133,25.961L33.883,16.711L6.414,44.18C3.195,47.391 3.195,52.609 6.414,55.82L44.18,93.586C45.781,95.195 47.891,96 50,96C52.109,96 54.219,95.195 55.82,93.586L93.586,55.82C96.805,52.609 96.805,47.391 93.586,44.18Z" style="fill:white;fill-rule:nonzero;"/>
    </g>
</svg>
