<?xml version="1.0" encoding="UTF-8" standalone="no"?>
<!DOCTYPE svg PUBLIC "-//W3C//DTD SVG 1.1//EN" "http://www.w3.org/Graphics/SVG/1.1/DTD/svg11.dtd">
<svg width="100%" height="100%" viewBox="0 0 64 64" version="1.1" xmlns="http://www.w3.org/2000/svg" xmlns:xlink="http://www.w3.org/1999/xlink" xml:space="preserve" xmlns:serif="http://www.serif.com/" style="fill-rule:evenodd;clip-rule:evenodd;stroke-linejoin:round;stroke-miterlimit:2;">
    <path d="M64,3.298C64,1.476 62.524,0 60.702,-0L3.298,-0C1.476,0 0,1.476 -0,3.298L-0,60.702C0,62.524 1.476,64 3.298,64L60.702,64C62.524,64 64,62.524 64,60.702L64,3.298ZM41.845,47.906C43.076,49.904 44.412,51.819 47.244,51.819C49.623,51.819 50.871,50.636 50.871,49.001C50.871,47.044 49.58,46.348 46.964,45.209L45.529,44.597C41.388,42.841 38.635,40.64 38.635,35.991C38.635,31.707 41.915,28.446 47.04,28.446C50.69,28.446 53.312,29.71 55.204,33.02L50.734,35.877C49.751,34.121 48.688,33.429 47.04,33.429C45.358,33.429 44.293,34.491 44.293,35.877C44.293,37.591 45.36,38.284 47.822,39.346L49.257,39.957C54.137,42.036 56.889,44.158 56.889,48.93C56.889,54.071 52.828,56.889 47.378,56.889C42.046,56.889 39.019,54.213 37.333,50.901L41.845,47.906ZM21.248,48.052C22.148,49.662 23.515,50.901 25.481,50.901C27.362,50.901 28.444,50.158 28.444,47.269L28.444,28.444L34.37,28.444L34.37,48.18C34.37,54.165 30.898,56.889 25.828,56.889C21.246,56.889 17.94,53.785 16.592,50.901L21.248,48.052Z" style="fill:white;"/>
</svg>
