<?xml version="1.0" encoding="UTF-8" standalone="no"?>
<!DOCTYPE svg PUBLIC "-//W3C//DTD SVG 1.1//EN" "http://www.w3.org/Graphics/SVG/1.1/DTD/svg11.dtd">
<svg width="100%" height="100%" viewBox="0 0 64 64" version="1.1" xmlns="http://www.w3.org/2000/svg" xmlns:xlink="http://www.w3.org/1999/xlink" xml:space="preserve" xmlns:serif="http://www.serif.com/" style="fill-rule:evenodd;clip-rule:evenodd;stroke-linejoin:round;stroke-miterlimit:2;">
    <g transform="matrix(0.820513,0,0,0.820513,-7.38462,-7.38462)">
        <path d="M47.982,9C46.887,9 45.793,9.269 44.848,9.809L15.117,26.971C13.197,28.081 12,30.182 12,32.402L12,63.539C12,65.789 13.197,67.861 15.117,68.971L22.922,73.471C26.702,75.331 28.05,75.328 29.76,75.328C35.37,75.328 38.578,71.939 38.578,66.059L38.578,33.932C38.578,33.452 38.191,33.059 37.711,33.059L33.961,33.059C33.451,33.059 33.088,33.452 33.088,33.932L33.088,66.029C33.088,68.669 30.361,71.249 25.951,69.059L17.789,64.348C17.489,64.198 17.309,63.869 17.309,63.539L17.309,32.432C17.309,32.072 17.489,31.768 17.789,31.588L47.52,14.432C47.79,14.252 48.151,14.252 48.451,14.432L78.182,31.588C78.482,31.768 78.662,32.072 78.662,32.402L78.662,63.539C78.662,63.869 78.481,64.198 78.211,64.348L48.451,81.539C48.181,81.689 47.79,81.689 47.52,81.539L39.867,77.01C39.657,76.86 39.362,76.831 39.152,76.951C37.022,78.151 36.632,78.3 34.652,78.99C34.172,79.14 33.422,79.439 34.922,80.279L44.848,86.162C45.808,86.702 46.891,87 47.971,87C49.081,87 50.157,86.702 51.117,86.162L80.883,68.971C82.803,67.861 84,65.789 84,63.539L84,32.432C84,30.182 82.803,28.11 80.883,27L51.117,9.809C50.172,9.269 49.077,9 47.982,9ZM55.98,33.018C47.49,33.018 42.422,36.615 42.422,42.615C42.422,49.125 47.457,50.922 55.617,51.732C65.367,52.692 66.117,54.137 66.117,56.057C66.117,59.357 63.452,60.768 57.182,60.768C49.292,60.768 47.55,58.785 46.98,54.885C46.92,54.465 46.563,54.164 46.143,54.164L42.27,54.164C41.79,54.164 41.432,54.558 41.432,55.008C41.432,60.018 44.162,65.982 57.182,65.982C66.602,65.982 72,62.267 72,55.787C72,49.367 67.649,47.654 58.529,46.424C49.259,45.224 48.328,44.594 48.328,42.434C48.328,40.634 49.14,38.268 55.98,38.268C62.07,38.268 64.349,39.583 65.279,43.693C65.369,44.083 65.697,44.385 66.117,44.385L69.99,44.385C70.23,44.385 70.437,44.266 70.617,44.086C70.767,43.936 70.858,43.694 70.828,43.424C70.228,36.344 65.52,33.018 55.98,33.018Z" style="fill:white;fill-rule:nonzero;"/>
    </g>
</svg>
