<?xml version="1.0" encoding="UTF-8" standalone="no"?>
<!DOCTYPE svg PUBLIC "-//W3C//DTD SVG 1.1//EN" "http://www.w3.org/Graphics/SVG/1.1/DTD/svg11.dtd">
<svg width="100%" height="100%" viewBox="0 0 64 64" version="1.1" xmlns="http://www.w3.org/2000/svg" xmlns:xlink="http://www.w3.org/1999/xlink" xml:space="preserve" xmlns:serif="http://www.serif.com/" style="fill-rule:evenodd;clip-rule:evenodd;stroke-linejoin:round;stroke-miterlimit:2;">
    <g transform="matrix(0.888889,0,0,0.888889,-8,-8)">
        <path d="M32.039,12.545C30.206,12.545 28.506,12.955 27,13.822C22.293,16.54 20.502,23.162 21.451,31.406C13.838,34.706 9,39.566 9,45C9,50.434 13.838,55.294 21.451,58.594C20.502,66.838 22.293,73.46 27,76.178C28.503,77.045 30.203,77.455 32.039,77.455C35.947,77.455 40.464,75.494 45,72.129C49.537,75.494 54.059,77.455 57.967,77.455C59.8,77.455 61.5,77.045 63.006,76.178C67.712,73.46 69.504,66.838 68.555,58.594C76.165,55.294 81,50.433 81,45C81,39.566 76.162,34.706 68.549,31.406C69.498,23.162 67.707,16.54 63,13.822C61.497,12.952 59.797,12.545 57.961,12.545C54.053,12.545 49.536,14.506 45,17.871C40.463,14.506 35.946,12.545 32.039,12.545ZM32.039,17.795C34.384,17.795 37.485,19.042 40.852,21.352C38.872,23.22 36.933,25.344 35.068,27.709C32.043,28.143 29.191,28.775 26.549,29.566C26.535,29.383 26.501,29.191 26.49,29.01C26.169,23.67 27.342,19.689 29.625,18.369C30.3,17.979 31.088,17.795 32.039,17.795ZM57.961,17.795C58.909,17.795 59.7,17.979 60.375,18.369C62.658,19.686 63.831,23.67 63.51,29.01C63.499,29.191 63.465,29.383 63.451,29.566C60.807,28.775 57.953,28.143 54.926,27.709C53.061,25.344 51.128,23.219 49.148,21.352C52.515,19.042 55.617,17.795 57.961,17.795ZM45,24.686C45.813,25.426 46.621,26.208 47.438,27.064C46.628,27.037 45.823,27 45,27C44.179,27 43.376,27.037 42.568,27.064C43.384,26.209 44.188,25.425 45,24.686ZM45,32.25C47.486,32.25 49.842,32.389 52.078,32.631C53.442,34.484 54.785,36.443 56.045,38.625C57.252,40.716 58.32,42.856 59.262,45C58.32,47.145 57.253,49.289 56.045,51.381C54.789,53.556 53.449,55.503 52.09,57.352C49.775,57.605 47.401,57.75 45,57.75C42.514,57.75 40.158,57.611 37.922,57.369C36.558,55.516 35.215,53.562 33.955,51.381C32.747,49.289 31.681,47.145 30.738,45C31.68,42.856 32.748,40.716 33.955,38.625C35.211,36.45 36.551,34.497 37.91,32.648C40.225,32.395 42.599,32.25 45,32.25ZM59.238,33.873C60.429,34.16 61.573,34.471 62.648,34.816C62.405,35.918 62.107,37.04 61.77,38.174C61.383,37.449 61.009,36.723 60.592,36C60.162,35.257 59.686,34.589 59.238,33.873ZM30.756,33.879C30.31,34.592 29.836,35.259 29.408,36C28.991,36.723 28.616,37.449 28.23,38.174C27.893,37.037 27.59,35.914 27.346,34.811C28.441,34.464 29.582,34.158 30.756,33.879ZM22.406,36.738C23.038,39.407 23.915,42.174 25.043,44.994C23.918,47.808 23.044,50.569 22.412,53.232C17.188,50.71 14.25,47.569 14.25,45C14.25,42.363 17.106,39.358 21.891,36.967C22.054,36.885 22.239,36.818 22.406,36.738ZM67.588,36.768C72.812,39.29 75.75,42.431 75.75,45C75.75,47.637 72.894,50.642 68.109,53.033C67.946,53.115 67.761,53.182 67.594,53.262C66.961,50.591 66.092,47.822 64.963,45C66.087,42.189 66.956,39.428 67.588,36.768ZM45,39C41.685,39 39,41.685 39,45C39,48.315 41.685,51 45,51C48.315,51 51,48.315 51,45C51,41.685 48.315,39 45,39ZM28.23,51.826C28.617,52.551 28.997,53.277 29.414,54C29.843,54.743 30.315,55.412 30.762,56.127C29.571,55.84 28.427,55.529 27.352,55.184C27.595,54.082 27.893,52.961 28.23,51.826ZM61.77,51.832C62.107,52.967 62.411,54.087 62.654,55.189C61.559,55.536 60.418,55.842 59.244,56.121C59.69,55.408 60.164,54.741 60.592,54C61.008,53.279 61.384,52.555 61.77,51.832ZM26.549,60.434C29.193,61.225 32.047,61.857 35.074,62.291C36.94,64.657 38.871,66.786 40.852,68.654C37.485,70.963 34.384,72.211 32.039,72.211C31.091,72.211 30.3,72.021 29.625,71.631C27.342,70.314 26.169,66.336 26.49,60.996C26.501,60.813 26.534,60.619 26.549,60.434ZM63.451,60.434C63.466,60.619 63.499,60.813 63.51,60.996C63.831,66.336 62.658,70.311 60.375,71.631C59.7,72.021 58.912,72.211 57.961,72.211C55.616,72.211 52.515,70.964 49.148,68.654C51.129,66.786 53.066,64.657 54.932,62.291C57.957,61.857 60.809,61.225 63.451,60.434ZM42.563,62.936C43.372,62.963 44.177,63 45,63C45.823,63 46.628,62.963 47.438,62.936C46.621,63.792 45.813,64.574 45,65.314C44.187,64.574 43.379,63.792 42.563,62.936Z" style="fill:white;fill-rule:nonzero;"/>
    </g>
</svg>
